<?xml version="1.0" encoding="UTF-8" standalone="no"?>
<svg
   xmlns:dc="http://purl.org/dc/elements/1.1/"
   xmlns:cc="http://creativecommons.org/ns#"
   xmlns:rdf="http://www.w3.org/1999/02/22-rdf-syntax-ns#"
   xmlns:svg="http://www.w3.org/2000/svg"
   xmlns="http://www.w3.org/2000/svg"
   xmlns:sodipodi="http://sodipodi.sourceforge.net/DTD/sodipodi-0.dtd"
   xmlns:inkscape="http://www.inkscape.org/namespaces/inkscape"
   version="1.1"
   id="svg2"
   xml:space="preserve"
   width="1056"
   height="816"
   viewBox="0 0 1056 816"
   sodipodi:docname="Felix the cat.ai"><metadata
     id="metadata8"><rdf:RDF><cc:Work
         rdf:about=""><dc:format>image/svg+xml</dc:format><dc:type
           rdf:resource="http://purl.org/dc/dcmitype/StillImage" /></cc:Work></rdf:RDF></metadata><defs
     id="defs6"><clipPath
       clipPathUnits="userSpaceOnUse"
       id="clipPath18"><path
         d="M 0,612 H 792 V 0 H 0 Z"
         id="path16" /></clipPath><clipPath
       clipPathUnits="userSpaceOnUse"
       id="clipPath150"><path
         d="m 466.96,384.76 h 8.71 V 366 h -8.71 z"
         id="path148" /></clipPath><clipPath
       clipPathUnits="userSpaceOnUse"
       id="clipPath202"><path
         d="m 512.167,85.833 h 115 v -21 h -115 z"
         id="path200" /></clipPath><clipPath
       clipPathUnits="userSpaceOnUse"
       id="clipPath222"><path
         d="m 239.167,76.832 h 174.334 v -21 H 239.167 Z"
         id="path220" /></clipPath></defs><sodipodi:namedview
     pagecolor="#ffffff"
     bordercolor="#666666"
     borderopacity="1"
     objecttolerance="10"
     gridtolerance="10"
     guidetolerance="10"
     inkscape:pageopacity="0"
     inkscape:pageshadow="2"
     inkscape:window-width="640"
     inkscape:window-height="480"
     id="namedview4" /><g
     id="g10"
     inkscape:groupmode="layer"
     inkscape:label="Felix the cat"
     transform="matrix(1.3333333,0,0,-1.3333333,0,816)"><g
       id="g12"><g
         id="g14"
         clip-path="url(#clipPath18)"><g
           id="g20"
           transform="translate(279.3325,173.3311)"><path
             d="m 0,0 c 0,0 -27.666,-2.666 -64.333,17 -36.667,19.666 -47.334,-22.668 -37.334,-30.334 0,0 12,-29.333 96,-24.333 C 78.334,-32.667 0,0 0,0"
             style="fill:#1a171b;fill-opacity:1;fill-rule:nonzero;stroke:none"
             id="path22" /></g><g
           id="g24"
           transform="translate(279.3325,173.3311)"><path
             d="m 0,0 c 0,0 -27.666,-2.666 -64.333,17 -36.667,19.666 -47.334,-22.668 -37.334,-30.334 0,0 12,-29.333 96,-24.333 C 78.334,-32.667 0,0 0,0 Z"
             style="fill:none;stroke:#1a171b;stroke-width:1;stroke-linecap:butt;stroke-linejoin:miter;stroke-miterlimit:4;stroke-dasharray:none;stroke-opacity:1"
             id="path26" /></g><g
           id="g28"
           transform="translate(426.7998,336.9995)"><path
             d="m 0,0 c 0,0 53.399,-22.2 104.2,22 0,0 -4.875,37 17.375,42.75 0,0 -0.125,19.5 29.5,20.25 0,0 16.875,0.25 20,-23.125 0,0 20.375,-3.375 9.25,-33.125 0,0 11.5,-39.5 -30.625,-35.5 0,0 -7.375,-8.125 -18,-4.5 0,0 -37.25,-34.25 -93,-26 l -43,11 3.5,26.5"
             style="fill:#1a171b;fill-opacity:1;fill-rule:nonzero;stroke:#1a171b;stroke-width:1;stroke-linecap:butt;stroke-linejoin:miter;stroke-miterlimit:4;stroke-dasharray:none;stroke-opacity:1"
             id="path30" /></g><g
           id="g32"
           transform="translate(445.668,236.998)"><path
             d="m 0,0 46,-23 c 0,0 11.666,-25.668 14.666,-68.334 3,-42.666 56.667,-20.333 56.667,-20.333 0,0 81.001,27.333 63.667,83 0,0 -21.668,40.667 -74.334,-3 0,0 -9.333,32.334 -10.333,33.667 C 96.333,2 79,20 22,29.333 -35,38.666 0,0 0,0"
             style="fill:#1a171b;fill-opacity:1;fill-rule:nonzero;stroke:none"
             id="path34" /></g><g
           id="g36"
           transform="translate(445.668,236.998)"><path
             d="m 0,0 46,-23 c 0,0 11.666,-25.668 14.666,-68.334 3,-42.666 56.667,-20.333 56.667,-20.333 0,0 81.001,27.333 63.667,83 0,0 -21.668,40.667 -74.334,-3 0,0 -9.333,32.334 -10.333,33.667 C 96.333,2 79,20 22,29.333 -35,38.666 0,0 0,0 Z"
             style="fill:none;stroke:#1a171b;stroke-width:1;stroke-linecap:butt;stroke-linejoin:miter;stroke-miterlimit:4;stroke-dasharray:none;stroke-opacity:1"
             id="path38" /></g><g
           id="g40"
           transform="translate(486.3945,398.6074)"><path
             d="m 0,0 c -0.84,0.165 -1.748,0.296 -2.728,0.392 0,0 20.333,57.501 -19.667,103.501 0,0 -48,48 -113,30 0,0 -44,-10 -67,-49 l -55.153,8.884 c 0,0 49.23,-54.616 38.461,-136.154 l 36.154,-3.077 -10.769,-11.538 c 0,0 61.538,1.538 74.615,-6.154 0,0 -94.615,12.307 -125.384,-50 0,0 -16.923,-3.078 -18.462,-22.308 0,0 -6.153,3.077 2.308,16.154 8.461,13.077 -56.923,-16.923 -13.846,-45.385 0,0 6.923,-25.383 33.846,-19.23 0,0 15.384,-13.846 36.923,4.615 0,0 37.692,3.077 7.692,52.308 0,0 20.769,33.077 76.923,30.769 0,0 -3.846,-10.001 3.846,-14.616 0,0 -13.076,-20.768 0.77,-53.846 0,0 3.846,-33.846 -1.539,-37.692 0,0 -17.693,-7.693 -39.231,1.538 -21.227,9.098 -59.489,23.034 -62.063,-61.248 -0.038,-1.235 -0.068,-2.492 -0.091,-3.77 0,0 0.282,-1.059 0.861,-2.884 4.085,-12.893 22.981,-64.035 62.063,-50.559 44.615,15.385 25.384,56.923 25.384,56.923 0,0 30.77,2.308 45.385,12.308 0,0 18.462,0.769 17.692,80.769 0,0 16.155,-2.307 28.462,6.923 0,0 19.819,12.103 23.486,31.103 0,0 3,33.667 -17.333,46.666 0,0 -13,10.667 -22,10.334 l -7.333,14 c 0,0 21.999,7.999 33.333,21.333 0,0 3.336,1.999 0.693,-0.617"
             style="fill:#1a171b;fill-opacity:1;fill-rule:nonzero;stroke:#ffffff;stroke-width:1;stroke-linecap:butt;stroke-linejoin:miter;stroke-miterlimit:4;stroke-dasharray:none;stroke-opacity:1"
             id="path42" /></g><g
           id="g44"
           transform="translate(340.5,523)"><path
             d="M 0,0 1.5,37 31,8 Z"
             style="fill:#1a171b;fill-opacity:1;fill-rule:nonzero;stroke:none"
             id="path46" /></g><g
           id="g48"
           transform="translate(340.5,523)"><path
             d="M 0,0 1.5,37 31,8 Z"
             style="fill:none;stroke:#1a171b;stroke-width:1;stroke-linecap:butt;stroke-linejoin:miter;stroke-miterlimit:4;stroke-dasharray:none;stroke-opacity:1"
             id="path50" /></g><g
           id="g52"
           transform="translate(395.5,533.5)"><path
             d="M 0,0 10.5,12.5 17,-4.5 Z"
             style="fill:#1a171b;fill-opacity:1;fill-rule:nonzero;stroke:none"
             id="path54" /></g><g
           id="g56"
           transform="translate(395.5,533.5)"><path
             d="M 0,0 10.5,12.5 17,-4.5 Z"
             style="fill:none;stroke:#1a171b;stroke-width:1;stroke-linecap:butt;stroke-linejoin:miter;stroke-miterlimit:4;stroke-dasharray:none;stroke-opacity:1"
             id="path58" /></g><g
           id="g60"
           transform="translate(547.75,444.875)"><path
             d="m 0,0 c 0,-2.416 -3.302,-4.375 -7.375,-4.375 -4.073,0 -7.375,1.959 -7.375,4.375 0,2.416 3.302,4.375 7.375,4.375 C -3.302,4.375 0,2.416 0,0"
             style="fill:#1a171b;fill-opacity:1;fill-rule:nonzero;stroke:none"
             id="path62" /></g><g
           id="g64"
           transform="translate(547.75,444.875)"><path
             d="m 0,0 c 0,-2.416 -3.302,-4.375 -7.375,-4.375 -4.073,0 -7.375,1.959 -7.375,4.375 0,2.416 3.302,4.375 7.375,4.375 C -3.302,4.375 0,2.416 0,0 Z"
             style="fill:none;stroke:#1a171b;stroke-width:1;stroke-linecap:butt;stroke-linejoin:miter;stroke-miterlimit:4;stroke-dasharray:none;stroke-opacity:1"
             id="path66" /></g><g
           id="g68"
           transform="translate(566.75,437.875)"><path
             d="m 0,0 c 0,-2.416 -3.302,-4.375 -7.375,-4.375 -4.073,0 -7.375,1.959 -7.375,4.375 0,2.416 3.302,4.375 7.375,4.375 C -3.302,4.375 0,2.416 0,0"
             style="fill:#1a171b;fill-opacity:1;fill-rule:nonzero;stroke:none"
             id="path70" /></g><g
           id="g72"
           transform="translate(566.75,437.875)"><path
             d="m 0,0 c 0,-2.416 -3.302,-4.375 -7.375,-4.375 -4.073,0 -7.375,1.959 -7.375,4.375 0,2.416 3.302,4.375 7.375,4.375 C -3.302,4.375 0,2.416 0,0 Z"
             style="fill:none;stroke:#1a171b;stroke-width:1;stroke-linecap:butt;stroke-linejoin:miter;stroke-miterlimit:4;stroke-dasharray:none;stroke-opacity:1"
             id="path74" /></g><g
           id="g76"
           transform="translate(545.25,447.75)"><path
             d="m 0,0 v 23.5 c 0,0 2.084,-5.417 19.417,-6.75 l 0.5,-25.333 -1.667,0.166 -0.5,18.167 c 0,0 -13.667,0.5 -15.5,2.833 l -0.833,-14.5 z"
             style="fill:#1a171b;fill-opacity:1;fill-rule:nonzero;stroke:none"
             id="path78" /></g><g
           id="g80"
           transform="translate(545.25,447.75)"><path
             d="m 0,0 v 23.5 c 0,0 2.084,-5.417 19.417,-6.75 l 0.5,-25.333 -1.667,0.166 -0.5,18.167 c 0,0 -13.667,0.5 -15.5,2.833 l -0.833,-14.5 z"
             style="fill:none;stroke:#1a171b;stroke-width:1;stroke-linecap:butt;stroke-linejoin:miter;stroke-miterlimit:4;stroke-dasharray:none;stroke-opacity:1"
             id="path82" /></g><g
           id="g84"
           transform="translate(510.334,410.333)"><path
             d="m 0,0 -2,21.333 17.667,-3 c 0,0 -1.334,-5 -11.334,-8 l -1,-17.666 c 0,0 -13.666,-6.667 -16.666,2 0,0 -1.667,7.666 13.333,5.333"
             style="fill:#1a171b;fill-opacity:1;fill-rule:nonzero;stroke:none"
             id="path86" /></g><g
           id="g88"
           transform="translate(510.334,410.333)"><path
             d="m 0,0 -2,21.333 17.667,-3 c 0,0 -1.334,-5 -11.334,-8 l -1,-17.666 c 0,0 -13.666,-6.667 -16.666,2 0,0 -1.667,7.666 13.333,5.333 z"
             style="fill:none;stroke:#1a171b;stroke-width:1;stroke-linecap:butt;stroke-linejoin:miter;stroke-miterlimit:4;stroke-dasharray:none;stroke-opacity:1"
             id="path90" /></g><g
           id="g92"
           transform="translate(410.5,500.5)"><path
             d="M 0,0 C 24.169,-20.952 27.792,-49.128 11,-68.5 -5.791,-87.871 -45.83,-85.951 -70,-65 -94.17,-44.048 -100.292,-15.871 -83.5,3.5 -66.708,22.872 -24.169,20.952 0,0"
             style="fill:#ffffff;fill-opacity:1;fill-rule:nonzero;stroke:none"
             id="path94" /></g><g
           id="g96"
           transform="translate(410.5,500.5)"><path
             d="M 0,0 C 24.169,-20.952 27.792,-49.128 11,-68.5 -5.791,-87.871 -45.83,-85.951 -70,-65 -94.17,-44.048 -100.292,-15.871 -83.5,3.5 -66.708,22.872 -24.169,20.952 0,0 Z"
             style="fill:none;stroke:#1a171b;stroke-width:1;stroke-linecap:butt;stroke-linejoin:miter;stroke-miterlimit:4;stroke-dasharray:none;stroke-opacity:1"
             id="path98" /></g><g
           id="g100"
           transform="translate(387.3721,496.8672)"><path
             d="m 0,0 c 8.273,-8.744 10.785,-19.803 5.609,-24.701 -5.176,-4.898 -16.081,-1.778 -24.354,6.967 -8.274,8.744 -10.783,19.802 -5.607,24.7 C -19.176,11.864 -8.272,8.745 0,0"
             style="fill:#1a171b;fill-opacity:1;fill-rule:nonzero;stroke:none"
             id="path102" /></g><g
           id="g104"
           transform="translate(387.3721,496.8672)"><path
             d="m 0,0 c 8.273,-8.744 10.785,-19.803 5.609,-24.701 -5.176,-4.898 -16.081,-1.778 -24.354,6.967 -8.274,8.744 -10.783,19.802 -5.607,24.7 C -19.176,11.864 -8.272,8.745 0,0 Z"
             style="fill:none;stroke:#1a171b;stroke-width:1;stroke-linecap:butt;stroke-linejoin:miter;stroke-miterlimit:4;stroke-dasharray:none;stroke-opacity:1"
             id="path106" /></g><g
           id="g108"
           transform="translate(459,467)"><path
             d="m 0,0 c 0,0 -43,24 -54,62.5 0,0 48.5,-7.5 69.5,-55 L 15,-1 Z"
             style="fill:#ffffff;fill-opacity:1;fill-rule:nonzero;stroke:none"
             id="path110" /></g><g
           id="g112"
           transform="translate(459,467)"><path
             d="m 0,0 c 0,0 -43,24 -54,62.5 0,0 48.5,-7.5 69.5,-55 L 15,-1 Z"
             style="fill:none;stroke:#1a171b;stroke-width:1;stroke-linecap:butt;stroke-linejoin:miter;stroke-miterlimit:4;stroke-dasharray:none;stroke-opacity:1"
             id="path114" /></g><g
           id="g116"
           transform="translate(443.5049,512.936)"><path
             d="m 0,0 c 4.08,-2.592 2.568,-8.24 0.551,-10.484 -3.48,-3.868 -12.72,-1.23 -20.637,5.892 -7.369,6.628 -10.993,14.804 -8.655,19.023 0,0 14.871,-5.62 28.741,-14.431"
             style="fill:#1a171b;fill-opacity:1;fill-rule:nonzero;stroke:none"
             id="path118" /></g><g
           id="g120"
           transform="translate(443.5049,512.936)"><path
             d="m 0,0 c 4.08,-2.592 2.568,-8.24 0.551,-10.484 -3.48,-3.868 -12.72,-1.23 -20.637,5.892 -7.369,6.628 -10.993,14.804 -8.655,19.023 0,0 14.871,-5.62 28.741,-14.431 z"
             style="fill:none;stroke:#1a171b;stroke-width:1;stroke-linecap:butt;stroke-linejoin:miter;stroke-miterlimit:4;stroke-dasharray:none;stroke-opacity:1"
             id="path122" /></g><g
           id="g124"
           transform="translate(457,361.5)"><path
             d="m 0,0 c 0,0 -64,-45.5 -120.5,-6 0,0 -27.5,26.5 7.5,43 0,0 22,10.5 39.5,12 17.5,1.5 69,15 48.5,70 0,0 29.5,-26.5 50,-17.5 0,0 6.5,-39 0.5,-66 C 19.5,8.5 0,0 0,0"
             style="fill:#ffffff;fill-opacity:1;fill-rule:nonzero;stroke:none"
             id="path126" /></g><g
           id="g128"
           transform="translate(457,361.5)"><path
             d="m 0,0 c 0,0 -64,-45.5 -120.5,-6 0,0 -27.5,26.5 7.5,43 0,0 22,10.5 39.5,12 17.5,1.5 69,15 48.5,70 0,0 29.5,-26.5 50,-17.5 0,0 6.5,-39 0.5,-66 C 19.5,8.5 0,0 0,0 Z"
             style="fill:none;stroke:#1a171b;stroke-width:1;stroke-linecap:butt;stroke-linejoin:miter;stroke-miterlimit:4;stroke-dasharray:none;stroke-opacity:1"
             id="path130" /></g><g
           id="g132"
           transform="translate(473.25,407.5)"><path
             d="m 0,0 2.387,-10.987 c 4.929,2.822 9.856,3.404 13.331,1.053 6.234,-4.218 5.438,-16.284 -1.779,-26.948 -7.215,-10.664 -18.121,-15.889 -24.356,-11.671 -3.27,2.213 -4.605,6.584 -4.095,11.78 L -24,-38"
             style="fill:#ffffff;fill-opacity:1;fill-rule:nonzero;stroke:#1a171b;stroke-width:3;stroke-linecap:butt;stroke-linejoin:miter;stroke-miterlimit:4;stroke-dasharray:none;stroke-opacity:1"
             id="path134" /></g><g
           id="g136"
           transform="translate(503.9404,462.1572)"><path
             d="m 0,0 c 3.513,-10.721 -5.271,-23.225 -19.621,-27.928 -14.35,-4.703 -28.829,0.176 -32.343,10.897 -3.515,10.721 5.269,23.224 19.618,27.927 C -17.996,15.6 -3.515,10.721 0,0"
             style="fill:#1a171b;fill-opacity:1;fill-rule:nonzero;stroke:none"
             id="path138" /></g><g
           id="g140"
           transform="translate(503.9404,462.1572)"><path
             d="m 0,0 c 3.513,-10.721 -5.271,-23.225 -19.621,-27.928 -14.35,-4.703 -28.829,0.176 -32.343,10.897 -3.515,10.721 5.269,23.224 19.618,27.927 C -17.996,15.6 -3.515,10.721 0,0 Z"
             style="fill:none;stroke:#1a171b;stroke-width:1;stroke-linecap:butt;stroke-linejoin:miter;stroke-miterlimit:4;stroke-dasharray:none;stroke-opacity:1"
             id="path142" /></g><g
           id="g144"><g
             id="g146" /><g
             id="g158"><g
               clip-path="url(#clipPath150)"
               id="g156"><g
                 transform="translate(475.6699,384.6699)"
                 id="g154"><path
                   d="m 0,0 -0.67,-8.34 c 1,-10 -8,-10.33 -8,-10.33 -0.4,6.45 2.29,11.71 5.64,15.69 0.95,1.13 1.95,2.15 2.95,3.07 z"
                   style="fill:#1a171b;fill-opacity:1;fill-rule:nonzero;stroke:none"
                   id="path152" /></g></g></g></g><g
           id="g160"
           transform="translate(484,390.6699)"><path
             d="m 0,0 c 0,0 -4.19,-2.02 -8.41,-5.91 -1,-0.92 -2,-1.94 -2.95,-3.07 -3.35,-3.98 -6.04,-9.24 -5.64,-15.69 0,0 9,0.33 8,10.33 L -8.33,-6"
             style="fill:none;stroke:#1a171b;stroke-width:1;stroke-linecap:butt;stroke-linejoin:miter;stroke-miterlimit:4;stroke-dasharray:none;stroke-opacity:1"
             id="path162" /></g><g
           id="g164"
           transform="translate(211.9233,233.9229)"><path
             d="m 0,0 c 1.25,-0.686 2.148,-1.026 3.705,-1 1.701,-0.195 10.102,1.069 10.067,1.333 0.059,-0.328 8.21,2.762 9.269,4.545 1.223,1.108 1.497,2.168 1.702,3.532 C 23.466,7.688 22.811,7.267 21.735,6.327 20.909,4.839 13.4,1.931 13.287,2.222 13.354,1.977 5.305,0.797 3.648,0.949 2.145,0.895 1.305,0.56 0,0"
             style="fill:#ffffff;fill-opacity:1;fill-rule:nonzero;stroke:none"
             id="path166" /></g><g
           id="g168"
           transform="translate(244.666,214.999)"><path
             d="m 0,0 c 1.061,0.132 1.727,0.308 2.487,1.03 0.866,0.739 4.711,4.96 4.664,5.011 0.055,-0.062 3.608,4.496 3.913,5.831 0.455,1.017 0.262,1.99 -0.397,2.795 C 10.051,13.744 9.663,13.512 9.269,12.634 9.08,11.647 5.728,7.247 5.659,7.296 5.713,7.257 1.948,3.171 1.118,2.419 0.394,1.689 0.214,1.045 0,0"
             style="fill:#ffffff;fill-opacity:1;fill-rule:nonzero;stroke:none"
             id="path170" /></g><g
           id="g172"
           transform="translate(270.2056,202.915)"><path
             d="m 0,0 c 1.702,0.819 2.805,1.509 4.21,3.155 1.828,1.566 8.089,11.549 7.838,11.705 0.35,-0.171 4.621,10.932 4.285,13.496 0.311,2.184 -0.173,3.486 -0.755,5.235 C 14.915,31.776 14.721,30.639 14.396,28.587 14.7,26.223 10.658,15.609 10.311,15.745 10.56,15.608 4.474,5.959 2.717,4.409 1.373,2.789 0.822,1.701 0,0"
             style="fill:#ffffff;fill-opacity:1;fill-rule:nonzero;stroke:none"
             id="path174" /></g><g
           id="g176"
           transform="translate(544.9941,363.999)"><path
             d="m 0,0 c 0,0 5.333,-31.334 26,-24 20.667,7.334 9.007,40.168 9.007,39.501 0,-0.667 -17.5,27 -32.834,22.666 -15.334,-4.333 -4.333,2.834 -4.333,2.834"
             style="fill:none;stroke:#ffffff;stroke-width:2;stroke-linecap:butt;stroke-linejoin:miter;stroke-miterlimit:4;stroke-dasharray:none;stroke-opacity:1"
             id="path178" /></g><g
           id="g180"
           transform="translate(581.0059,348.9976)"><path
             d="M 0,0 C 8.4,0.283 22.756,4.66 31.321,29.002"
             style="fill:none;stroke:#ffffff;stroke-width:3;stroke-linecap:butt;stroke-linejoin:miter;stroke-miterlimit:4;stroke-dasharray:none;stroke-opacity:1"
             id="path182" /></g><g
           id="g184"
           transform="translate(581.0645,373.4775)"><path
             d="M 0,0 C 8.969,3.031 13.296,11.488 17.603,26.022"
             style="fill:none;stroke:#ffffff;stroke-width:2;stroke-linecap:butt;stroke-linejoin:miter;stroke-miterlimit:4;stroke-dasharray:none;stroke-opacity:1"
             id="path186" /></g><g
           id="g188"
           transform="translate(565.6611,409.9995)"><path
             d="M 0,0 C 0,0 -4.3,-4.899 -7.532,-10.208"
             style="fill:none;stroke:#ffffff;stroke-width:2;stroke-linecap:butt;stroke-linejoin:miter;stroke-miterlimit:4;stroke-dasharray:none;stroke-opacity:1"
             id="path190" /></g><g
           id="g192"
           transform="translate(570.5117,339.8452)"><path
             d="M 0,0 C 0.288,-4.078 1.998,-9.953 9.149,-11.846"
             style="fill:none;stroke:#ffffff;stroke-width:2;stroke-linecap:butt;stroke-linejoin:miter;stroke-miterlimit:4;stroke-dasharray:none;stroke-opacity:1"
             id="path194" /></g><g
           id="g196"><g
             id="g198" /><g
             id="g214"><g
               clip-path="url(#clipPath202)"
               opacity="0.539993"
               id="g212"><g
                 transform="translate(625.667,75.333)"
                 id="g206"><path
                   d="m 0,0 c 0,-4.971 -25.072,-9 -56,-9 -30.928,0 -56,4.029 -56,9 0,4.971 25.072,9 56,9 C -25.072,9 0,4.971 0,0"
                   style="fill:#1a171b;fill-opacity:1;fill-rule:nonzero;stroke:none"
                   id="path204" /></g><g
                 transform="translate(625.667,75.333)"
                 id="g210"><path
                   d="m 0,0 c 0,-4.971 -25.072,-9 -56,-9 -30.928,0 -56,4.029 -56,9 0,4.971 25.072,9 56,9 C -25.072,9 0,4.971 0,0 Z"
                   style="fill:none;stroke:#1a171b;stroke-width:3;stroke-linecap:butt;stroke-linejoin:miter;stroke-miterlimit:4;stroke-dasharray:none;stroke-opacity:1"
                   id="path208" /></g></g></g></g><g
           id="g216"><g
             id="g218" /><g
             id="g234"><g
               clip-path="url(#clipPath222)"
               opacity="0.539993"
               id="g232"><g
                 transform="translate(412.001,66.332)"
                 id="g226"><path
                   d="m 0,0 c 0,-4.971 -38.354,-9 -85.667,-9 -47.312,0 -85.667,4.029 -85.667,9 0,4.971 38.355,9 85.667,9 C -38.354,9 0,4.971 0,0"
                   style="fill:#1a171b;fill-opacity:1;fill-rule:nonzero;stroke:none"
                   id="path224" /></g><g
                 transform="translate(412.001,66.332)"
                 id="g230"><path
                   d="m 0,0 c 0,-4.971 -38.354,-9 -85.667,-9 -47.312,0 -85.667,4.029 -85.667,9 0,4.971 38.355,9 85.667,9 C -38.354,9 0,4.971 0,0 Z"
                   style="fill:none;stroke:#1a171b;stroke-width:3;stroke-linecap:butt;stroke-linejoin:miter;stroke-miterlimit:4;stroke-dasharray:none;stroke-opacity:1"
                   id="path228" /></g></g></g></g></g></g></g></svg>
